<mxfile host="Electron" agent="Mozilla/5.0 (Windows NT 10.0; Win64; x64) AppleWebKit/537.36 (KHTML, like Gecko) draw.io/26.2.2 Chrome/134.0.6998.178 Electron/35.1.2 Safari/537.36" version="26.2.2">
  <diagram name="P치gina-1" id="Ovki-lDREfn9ZJcucXzl">
    <mxGraphModel dx="2416" dy="2131" grid="1" gridSize="10" guides="1" tooltips="1" connect="1" arrows="1" fold="1" page="1" pageScale="1" pageWidth="827" pageHeight="1169" math="0" shadow="0">
      <root>
        <mxCell id="0" />
        <mxCell id="1" parent="0" />
        <mxCell id="ww4cnImlD47e7eYLK4UX-37" value="Administrador" style="shape=umlActor;verticalLabelPosition=bottom;verticalAlign=top;html=1;outlineConnect=0;" parent="1" vertex="1">
          <mxGeometry x="-270" y="240" width="30" height="60" as="geometry" />
        </mxCell>
        <mxCell id="ww4cnImlD47e7eYLK4UX-39" value="Sistema" style="shape=umlActor;verticalLabelPosition=bottom;verticalAlign=top;html=1;outlineConnect=0;" parent="1" vertex="1">
          <mxGeometry x="1060" y="480" width="30" height="60" as="geometry" />
        </mxCell>
        <mxCell id="ww4cnImlD47e7eYLK4UX-42" value="Paciente" style="shape=umlActor;verticalLabelPosition=bottom;verticalAlign=top;html=1;outlineConnect=0;" parent="1" vertex="1">
          <mxGeometry x="-270" y="490" width="30" height="60" as="geometry" />
        </mxCell>
        <mxCell id="ww4cnImlD47e7eYLK4UX-45" value="Medico" style="shape=umlActor;verticalLabelPosition=bottom;verticalAlign=top;html=1;outlineConnect=0;" parent="1" vertex="1">
          <mxGeometry x="-260" y="1060" width="30" height="60" as="geometry" />
        </mxCell>
        <mxCell id="ww4cnImlD47e7eYLK4UX-50" value="Gestionar usuarios" style="ellipse;whiteSpace=wrap;html=1;" parent="1" vertex="1">
          <mxGeometry x="220" y="30" width="80" height="50" as="geometry" />
        </mxCell>
        <mxCell id="ww4cnImlD47e7eYLK4UX-51" value="Gestionar especialidades" style="ellipse;whiteSpace=wrap;html=1;" parent="1" vertex="1">
          <mxGeometry x="230" y="90" width="75" height="60" as="geometry" />
        </mxCell>
        <mxCell id="ww4cnImlD47e7eYLK4UX-54" value="Cancelar turnos administrativos" style="ellipse;whiteSpace=wrap;html=1;" parent="1" vertex="1">
          <mxGeometry x="232.5" y="180" width="70" height="50" as="geometry" />
        </mxCell>
        <mxCell id="ww4cnImlD47e7eYLK4UX-55" value="Visualizar estadisticas&lt;div&gt;CU&lt;/div&gt;" style="ellipse;whiteSpace=wrap;html=1;" parent="1" vertex="1">
          <mxGeometry x="770" y="700" width="90" height="60" as="geometry" />
        </mxCell>
        <mxCell id="ww4cnImlD47e7eYLK4UX-59" value="Exportar reportes&lt;div&gt;CU&lt;/div&gt;" style="ellipse;whiteSpace=wrap;html=1;" parent="1" vertex="1">
          <mxGeometry x="770" y="790" width="90" height="60" as="geometry" />
        </mxCell>
        <mxCell id="ww4cnImlD47e7eYLK4UX-61" value="Descargar credencial virtual" style="ellipse;whiteSpace=wrap;html=1;" parent="1" vertex="1">
          <mxGeometry x="-160" y="860" width="90" height="60" as="geometry" />
        </mxCell>
        <mxCell id="ww4cnImlD47e7eYLK4UX-62" value="Consultar turnos programados" style="ellipse;whiteSpace=wrap;html=1;" parent="1" vertex="1">
          <mxGeometry x="-140" y="780" width="90" height="60" as="geometry" />
        </mxCell>
        <mxCell id="ww4cnImlD47e7eYLK4UX-63" value="Consultar agenda diaria" style="ellipse;whiteSpace=wrap;html=1;" parent="1" vertex="1">
          <mxGeometry x="30" y="1060" width="90" height="60" as="geometry" />
        </mxCell>
        <mxCell id="ww4cnImlD47e7eYLK4UX-64" value="Opciones de turnos" style="ellipse;whiteSpace=wrap;html=1;" parent="1" vertex="1">
          <mxGeometry x="-130" y="690" width="90" height="60" as="geometry" />
        </mxCell>
        <mxCell id="ww4cnImlD47e7eYLK4UX-66" value="Cancelar turno" style="ellipse;whiteSpace=wrap;html=1;" parent="1" vertex="1">
          <mxGeometry x="20" y="725" width="70" height="40" as="geometry" />
        </mxCell>
        <mxCell id="ww4cnImlD47e7eYLK4UX-68" value="Visualizar datos paciente" style="ellipse;whiteSpace=wrap;html=1;" parent="1" vertex="1">
          <mxGeometry x="30" y="1150" width="90" height="60" as="geometry" />
        </mxCell>
        <mxCell id="ww4cnImlD47e7eYLK4UX-69" value="Verificar usuarios&lt;div&gt;CU&lt;/div&gt;" style="ellipse;whiteSpace=wrap;html=1;" parent="1" vertex="1">
          <mxGeometry x="770" y="600" width="90" height="60" as="geometry" />
        </mxCell>
        <mxCell id="ww4cnImlD47e7eYLK4UX-70" value="LOG IN&amp;nbsp;&lt;div&gt;CU01&lt;/div&gt;" style="ellipse;whiteSpace=wrap;html=1;" parent="1" vertex="1">
          <mxGeometry x="470" y="480" width="120" height="80" as="geometry" />
        </mxCell>
        <mxCell id="ww4cnImlD47e7eYLK4UX-75" value="" style="endArrow=classic;html=1;rounded=0;entryX=1;entryY=0.5;entryDx=0;entryDy=0;" parent="1" source="ww4cnImlD47e7eYLK4UX-39" target="ww4cnImlD47e7eYLK4UX-70" edge="1">
          <mxGeometry width="50" height="50" relative="1" as="geometry">
            <mxPoint x="460" y="470" as="sourcePoint" />
            <mxPoint x="510" y="420" as="targetPoint" />
          </mxGeometry>
        </mxCell>
        <mxCell id="ww4cnImlD47e7eYLK4UX-76" value="" style="endArrow=classic;html=1;rounded=0;entryX=0.083;entryY=0.75;entryDx=0;entryDy=0;entryPerimeter=0;" parent="1" source="ww4cnImlD47e7eYLK4UX-45" target="ww4cnImlD47e7eYLK4UX-70" edge="1">
          <mxGeometry width="50" height="50" relative="1" as="geometry">
            <mxPoint x="460" y="470" as="sourcePoint" />
            <mxPoint x="510" y="420" as="targetPoint" />
          </mxGeometry>
        </mxCell>
        <mxCell id="ww4cnImlD47e7eYLK4UX-77" value="" style="endArrow=classic;html=1;rounded=0;entryX=0;entryY=0.5;entryDx=0;entryDy=0;" parent="1" source="ww4cnImlD47e7eYLK4UX-42" target="ww4cnImlD47e7eYLK4UX-70" edge="1">
          <mxGeometry width="50" height="50" relative="1" as="geometry">
            <mxPoint x="460" y="470" as="sourcePoint" />
            <mxPoint x="510" y="420" as="targetPoint" />
          </mxGeometry>
        </mxCell>
        <mxCell id="ww4cnImlD47e7eYLK4UX-78" value="" style="endArrow=classic;html=1;rounded=0;" parent="1" source="ww4cnImlD47e7eYLK4UX-37" target="ww4cnImlD47e7eYLK4UX-70" edge="1">
          <mxGeometry width="50" height="50" relative="1" as="geometry">
            <mxPoint x="460" y="470" as="sourcePoint" />
            <mxPoint x="510" y="420" as="targetPoint" />
          </mxGeometry>
        </mxCell>
        <mxCell id="ww4cnImlD47e7eYLK4UX-82" value="Cambiar contrase침a&lt;div&gt;CU02&lt;/div&gt;" style="ellipse;whiteSpace=wrap;html=1;" parent="1" vertex="1">
          <mxGeometry x="485" y="350" width="90" height="60" as="geometry" />
        </mxCell>
        <mxCell id="ww4cnImlD47e7eYLK4UX-83" value="" style="endArrow=classic;html=1;rounded=0;entryX=0;entryY=1;entryDx=0;entryDy=0;exitX=1;exitY=0.3333333333333333;exitDx=0;exitDy=0;exitPerimeter=0;" parent="1" source="ww4cnImlD47e7eYLK4UX-45" target="ww4cnImlD47e7eYLK4UX-82" edge="1">
          <mxGeometry width="50" height="50" relative="1" as="geometry">
            <mxPoint x="370" y="630" as="sourcePoint" />
            <mxPoint x="420" y="580" as="targetPoint" />
          </mxGeometry>
        </mxCell>
        <mxCell id="ww4cnImlD47e7eYLK4UX-84" value="" style="endArrow=classic;html=1;rounded=0;entryX=0.013;entryY=0.63;entryDx=0;entryDy=0;entryPerimeter=0;" parent="1" source="ww4cnImlD47e7eYLK4UX-42" target="ww4cnImlD47e7eYLK4UX-82" edge="1">
          <mxGeometry width="50" height="50" relative="1" as="geometry">
            <mxPoint x="370" y="630" as="sourcePoint" />
            <mxPoint x="420" y="580" as="targetPoint" />
          </mxGeometry>
        </mxCell>
        <mxCell id="ww4cnImlD47e7eYLK4UX-85" value="" style="endArrow=classic;html=1;rounded=0;entryX=0.078;entryY=0.297;entryDx=0;entryDy=0;entryPerimeter=0;" parent="1" source="ww4cnImlD47e7eYLK4UX-37" target="ww4cnImlD47e7eYLK4UX-82" edge="1">
          <mxGeometry width="50" height="50" relative="1" as="geometry">
            <mxPoint x="50" y="320" as="sourcePoint" />
            <mxPoint x="420" y="580" as="targetPoint" />
          </mxGeometry>
        </mxCell>
        <mxCell id="ww4cnImlD47e7eYLK4UX-92" value="Opcion de recuperacion contrase침a&lt;div&gt;CU03&lt;/div&gt;" style="ellipse;whiteSpace=wrap;html=1;" parent="1" vertex="1">
          <mxGeometry x="490" y="720" width="90" height="60" as="geometry" />
        </mxCell>
        <mxCell id="ww4cnImlD47e7eYLK4UX-93" value="Recuperar Usuario&lt;div&gt;CU05&lt;/div&gt;" style="ellipse;whiteSpace=wrap;html=1;" parent="1" vertex="1">
          <mxGeometry x="640" y="790" width="80" height="50" as="geometry" />
        </mxCell>
        <mxCell id="ww4cnImlD47e7eYLK4UX-94" value="" style="endArrow=classic;html=1;rounded=0;entryX=0;entryY=0.5;entryDx=0;entryDy=0;" parent="1" source="ww4cnImlD47e7eYLK4UX-42" target="ww4cnImlD47e7eYLK4UX-92" edge="1">
          <mxGeometry width="50" height="50" relative="1" as="geometry">
            <mxPoint x="180" y="690" as="sourcePoint" />
            <mxPoint x="230" y="640" as="targetPoint" />
          </mxGeometry>
        </mxCell>
        <mxCell id="ww4cnImlD47e7eYLK4UX-96" value="" style="endArrow=classic;html=1;rounded=0;" parent="1" source="ww4cnImlD47e7eYLK4UX-45" target="ww4cnImlD47e7eYLK4UX-92" edge="1">
          <mxGeometry width="50" height="50" relative="1" as="geometry">
            <mxPoint x="180" y="880" as="sourcePoint" />
            <mxPoint x="230" y="830" as="targetPoint" />
          </mxGeometry>
        </mxCell>
        <mxCell id="ww4cnImlD47e7eYLK4UX-98" value="Recuperar contrase침a&lt;div&gt;CU04&lt;/div&gt;" style="ellipse;whiteSpace=wrap;html=1;" parent="1" vertex="1">
          <mxGeometry x="640" y="720" width="80" height="50" as="geometry" />
        </mxCell>
        <mxCell id="ww4cnImlD47e7eYLK4UX-100" value="&amp;lt;include&amp;gt;" style="html=1;verticalAlign=bottom;endArrow=open;dashed=1;endSize=8;curved=0;rounded=0;exitX=0;exitY=0.5;exitDx=0;exitDy=0;entryX=1;entryY=1;entryDx=0;entryDy=0;" parent="1" source="ww4cnImlD47e7eYLK4UX-93" target="ww4cnImlD47e7eYLK4UX-92" edge="1">
          <mxGeometry x="-0.0001" relative="1" as="geometry">
            <mxPoint x="530" y="761" as="sourcePoint" />
            <mxPoint x="570" y="840" as="targetPoint" />
            <mxPoint as="offset" />
            <Array as="points" />
          </mxGeometry>
        </mxCell>
        <mxCell id="ww4cnImlD47e7eYLK4UX-101" value="&amp;lt;include&amp;gt;" style="html=1;verticalAlign=bottom;endArrow=open;dashed=1;endSize=8;curved=0;rounded=0;exitX=0;exitY=0.5;exitDx=0;exitDy=0;entryX=1;entryY=0.5;entryDx=0;entryDy=0;" parent="1" source="ww4cnImlD47e7eYLK4UX-98" target="ww4cnImlD47e7eYLK4UX-92" edge="1">
          <mxGeometry x="-0.0001" relative="1" as="geometry">
            <mxPoint x="590" y="710" as="sourcePoint" />
            <mxPoint x="550" y="860" as="targetPoint" />
            <mxPoint as="offset" />
            <Array as="points" />
          </mxGeometry>
        </mxCell>
        <mxCell id="ww4cnImlD47e7eYLK4UX-103" value="TyC&lt;div&gt;CU06&lt;/div&gt;" style="ellipse;whiteSpace=wrap;html=1;" parent="1" vertex="1">
          <mxGeometry x="395" y="820" width="90" height="50" as="geometry" />
        </mxCell>
        <mxCell id="ww4cnImlD47e7eYLK4UX-104" value="" style="endArrow=classic;html=1;rounded=0;entryX=-0.01;entryY=0.298;entryDx=0;entryDy=0;entryPerimeter=0;" parent="1" source="ww4cnImlD47e7eYLK4UX-42" target="ww4cnImlD47e7eYLK4UX-103" edge="1">
          <mxGeometry width="50" height="50" relative="1" as="geometry">
            <mxPoint x="370" y="820" as="sourcePoint" />
            <mxPoint x="420" y="770" as="targetPoint" />
          </mxGeometry>
        </mxCell>
        <mxCell id="ww4cnImlD47e7eYLK4UX-105" value="" style="endArrow=classic;html=1;rounded=0;entryX=0;entryY=0.5;entryDx=0;entryDy=0;" parent="1" source="ww4cnImlD47e7eYLK4UX-45" target="ww4cnImlD47e7eYLK4UX-103" edge="1">
          <mxGeometry width="50" height="50" relative="1" as="geometry">
            <mxPoint x="370" y="820" as="sourcePoint" />
            <mxPoint x="420" y="770" as="targetPoint" />
          </mxGeometry>
        </mxCell>
        <mxCell id="ww4cnImlD47e7eYLK4UX-106" value="" style="endArrow=classic;html=1;rounded=0;entryX=1;entryY=0.5;entryDx=0;entryDy=0;" parent="1" source="ww4cnImlD47e7eYLK4UX-39" target="ww4cnImlD47e7eYLK4UX-59" edge="1">
          <mxGeometry width="50" height="50" relative="1" as="geometry">
            <mxPoint x="650" y="820" as="sourcePoint" />
            <mxPoint x="700" y="770" as="targetPoint" />
          </mxGeometry>
        </mxCell>
        <mxCell id="ww4cnImlD47e7eYLK4UX-107" value="" style="endArrow=classic;html=1;rounded=0;entryX=1;entryY=0.5;entryDx=0;entryDy=0;exitX=0;exitY=0.3333333333333333;exitDx=0;exitDy=0;exitPerimeter=0;" parent="1" source="ww4cnImlD47e7eYLK4UX-39" target="ww4cnImlD47e7eYLK4UX-55" edge="1">
          <mxGeometry width="50" height="50" relative="1" as="geometry">
            <mxPoint x="1000" y="540" as="sourcePoint" />
            <mxPoint x="700" y="770" as="targetPoint" />
          </mxGeometry>
        </mxCell>
        <mxCell id="ww4cnImlD47e7eYLK4UX-108" value="" style="endArrow=classic;html=1;rounded=0;entryX=1;entryY=0.5;entryDx=0;entryDy=0;" parent="1" source="ww4cnImlD47e7eYLK4UX-39" target="ww4cnImlD47e7eYLK4UX-69" edge="1">
          <mxGeometry width="50" height="50" relative="1" as="geometry">
            <mxPoint x="650" y="820" as="sourcePoint" />
            <mxPoint x="700" y="770" as="targetPoint" />
          </mxGeometry>
        </mxCell>
        <mxCell id="ww4cnImlD47e7eYLK4UX-113" value="Agendar turnos" style="ellipse;whiteSpace=wrap;html=1;" parent="1" vertex="1">
          <mxGeometry x="20" y="680" width="70" height="40" as="geometry" />
        </mxCell>
        <mxCell id="ww4cnImlD47e7eYLK4UX-114" value="Modificar turnos" style="ellipse;whiteSpace=wrap;html=1;" parent="1" vertex="1">
          <mxGeometry y="770" width="70" height="40" as="geometry" />
        </mxCell>
        <mxCell id="ww4cnImlD47e7eYLK4UX-115" value="&amp;lt;include&amp;gt;" style="html=1;verticalAlign=bottom;endArrow=open;dashed=1;endSize=8;curved=0;rounded=0;exitX=0;exitY=0.5;exitDx=0;exitDy=0;entryX=1;entryY=0;entryDx=0;entryDy=0;" parent="1" edge="1">
          <mxGeometry x="-0.0001" relative="1" as="geometry">
            <mxPoint x="20" y="698" as="sourcePoint" />
            <mxPoint x="-53.180194846605445" y="696.7867965644032" as="targetPoint" />
            <mxPoint as="offset" />
          </mxGeometry>
        </mxCell>
        <mxCell id="ww4cnImlD47e7eYLK4UX-116" value="&amp;lt;include&amp;gt;" style="html=1;verticalAlign=bottom;endArrow=open;dashed=1;endSize=8;curved=0;rounded=0;entryX=1;entryY=1;entryDx=0;entryDy=0;exitX=0;exitY=0.5;exitDx=0;exitDy=0;" parent="1" source="ww4cnImlD47e7eYLK4UX-114" target="ww4cnImlD47e7eYLK4UX-64" edge="1">
          <mxGeometry x="-0.0001" relative="1" as="geometry">
            <mxPoint x="780" y="960" as="sourcePoint" />
            <mxPoint x="687" y="989" as="targetPoint" />
            <mxPoint as="offset" />
          </mxGeometry>
        </mxCell>
        <mxCell id="ww4cnImlD47e7eYLK4UX-117" value="&amp;lt;include&amp;gt;" style="html=1;verticalAlign=bottom;endArrow=open;dashed=1;endSize=8;curved=0;rounded=0;entryX=1;entryY=0.5;entryDx=0;entryDy=0;exitX=0;exitY=0.5;exitDx=0;exitDy=0;" parent="1" source="ww4cnImlD47e7eYLK4UX-66" target="ww4cnImlD47e7eYLK4UX-64" edge="1">
          <mxGeometry x="-0.0001" relative="1" as="geometry">
            <mxPoint x="23" y="725.5" as="sourcePoint" />
            <mxPoint x="-70" y="754.5" as="targetPoint" />
            <mxPoint as="offset" />
          </mxGeometry>
        </mxCell>
        <mxCell id="ww4cnImlD47e7eYLK4UX-118" value="" style="endArrow=classic;html=1;rounded=0;entryX=0;entryY=0.5;entryDx=0;entryDy=0;" parent="1" source="ww4cnImlD47e7eYLK4UX-42" target="ww4cnImlD47e7eYLK4UX-61" edge="1">
          <mxGeometry width="50" height="50" relative="1" as="geometry">
            <mxPoint x="-230" y="570" as="sourcePoint" />
            <mxPoint x="190" y="750" as="targetPoint" />
          </mxGeometry>
        </mxCell>
        <mxCell id="ww4cnImlD47e7eYLK4UX-119" value="" style="endArrow=classic;html=1;rounded=0;entryX=0;entryY=0.5;entryDx=0;entryDy=0;" parent="1" source="ww4cnImlD47e7eYLK4UX-42" target="ww4cnImlD47e7eYLK4UX-62" edge="1">
          <mxGeometry width="50" height="50" relative="1" as="geometry">
            <mxPoint x="140" y="800" as="sourcePoint" />
            <mxPoint x="190" y="750" as="targetPoint" />
          </mxGeometry>
        </mxCell>
        <mxCell id="ww4cnImlD47e7eYLK4UX-120" value="" style="endArrow=classic;html=1;rounded=0;entryX=0;entryY=0.5;entryDx=0;entryDy=0;" parent="1" source="ww4cnImlD47e7eYLK4UX-42" target="ww4cnImlD47e7eYLK4UX-64" edge="1">
          <mxGeometry width="50" height="50" relative="1" as="geometry">
            <mxPoint x="140" y="800" as="sourcePoint" />
            <mxPoint x="190" y="750" as="targetPoint" />
          </mxGeometry>
        </mxCell>
        <mxCell id="ww4cnImlD47e7eYLK4UX-121" value="" style="endArrow=classic;html=1;rounded=0;entryX=0;entryY=0.5;entryDx=0;entryDy=0;" parent="1" source="ww4cnImlD47e7eYLK4UX-45" target="ww4cnImlD47e7eYLK4UX-68" edge="1">
          <mxGeometry width="50" height="50" relative="1" as="geometry">
            <mxPoint x="140" y="1090" as="sourcePoint" />
            <mxPoint x="190" y="1040" as="targetPoint" />
          </mxGeometry>
        </mxCell>
        <mxCell id="ww4cnImlD47e7eYLK4UX-122" value="" style="endArrow=classic;html=1;rounded=0;entryX=0;entryY=0.5;entryDx=0;entryDy=0;" parent="1" source="ww4cnImlD47e7eYLK4UX-45" target="ww4cnImlD47e7eYLK4UX-63" edge="1">
          <mxGeometry width="50" height="50" relative="1" as="geometry">
            <mxPoint x="-170" y="1090" as="sourcePoint" />
            <mxPoint x="190" y="1040" as="targetPoint" />
          </mxGeometry>
        </mxCell>
        <mxCell id="ww4cnImlD47e7eYLK4UX-123" value="&amp;lt;extend&amp;gt;" style="html=1;verticalAlign=bottom;endArrow=open;dashed=1;endSize=8;curved=0;rounded=0;entryX=0.5;entryY=0;entryDx=0;entryDy=0;exitX=0.5;exitY=1;exitDx=0;exitDy=0;exitPerimeter=0;" parent="1" source="ww4cnImlD47e7eYLK4UX-82" target="ww4cnImlD47e7eYLK4UX-70" edge="1">
          <mxGeometry x="0.1767" y="-4" relative="1" as="geometry">
            <mxPoint x="530" y="420" as="sourcePoint" />
            <mxPoint x="531" y="557" as="targetPoint" />
            <mxPoint x="-1" as="offset" />
          </mxGeometry>
        </mxCell>
        <mxCell id="ww4cnImlD47e7eYLK4UX-124" value="&amp;lt;extend&amp;gt;" style="html=1;verticalAlign=bottom;endArrow=open;dashed=1;endSize=8;curved=0;rounded=0;entryX=-0.01;entryY=0.625;entryDx=0;entryDy=0;exitX=0.5;exitY=0;exitDx=0;exitDy=0;entryPerimeter=0;" parent="1" source="ww4cnImlD47e7eYLK4UX-64" target="ww4cnImlD47e7eYLK4UX-70" edge="1">
          <mxGeometry x="0.1767" y="-4" relative="1" as="geometry">
            <mxPoint x="550" y="660" as="sourcePoint" />
            <mxPoint x="540" y="500" as="targetPoint" />
            <mxPoint x="-1" as="offset" />
          </mxGeometry>
        </mxCell>
        <mxCell id="ww4cnImlD47e7eYLK4UX-125" value="&amp;lt;include&amp;gt;" style="html=1;verticalAlign=bottom;endArrow=open;dashed=1;endSize=8;curved=0;rounded=0;entryX=0.5;entryY=0;entryDx=0;entryDy=0;exitX=0.406;exitY=1.016;exitDx=0;exitDy=0;exitPerimeter=0;" parent="1" source="ww4cnImlD47e7eYLK4UX-70" target="ww4cnImlD47e7eYLK4UX-103" edge="1">
          <mxGeometry x="-0.0001" relative="1" as="geometry">
            <mxPoint x="10" y="800" as="sourcePoint" />
            <mxPoint x="-43" y="751" as="targetPoint" />
            <mxPoint as="offset" />
          </mxGeometry>
        </mxCell>
        <mxCell id="ww4cnImlD47e7eYLK4UX-126" value="&amp;lt;extend&amp;gt;" style="html=1;verticalAlign=bottom;endArrow=open;dashed=1;endSize=8;curved=0;rounded=0;entryX=0.573;entryY=1.031;entryDx=0;entryDy=0;entryPerimeter=0;" parent="1" source="ww4cnImlD47e7eYLK4UX-92" target="ww4cnImlD47e7eYLK4UX-70" edge="1">
          <mxGeometry x="0.1767" y="-4" relative="1" as="geometry">
            <mxPoint x="540" y="420" as="sourcePoint" />
            <mxPoint x="540" y="490" as="targetPoint" />
            <mxPoint x="-1" as="offset" />
          </mxGeometry>
        </mxCell>
        <mxCell id="ww4cnImlD47e7eYLK4UX-127" value="&amp;lt;include&amp;gt;" style="html=1;verticalAlign=bottom;endArrow=open;dashed=1;endSize=8;curved=0;rounded=0;exitX=1;exitY=1;exitDx=0;exitDy=0;entryX=0;entryY=0.5;entryDx=0;entryDy=0;" parent="1" source="ww4cnImlD47e7eYLK4UX-70" target="ww4cnImlD47e7eYLK4UX-69" edge="1">
          <mxGeometry x="-0.0001" relative="1" as="geometry">
            <mxPoint x="529" y="571" as="sourcePoint" />
            <mxPoint x="630" y="640" as="targetPoint" />
            <mxPoint as="offset" />
          </mxGeometry>
        </mxCell>
        <mxCell id="ww4cnImlD47e7eYLK4UX-128" value="Registrar usuario" style="ellipse;whiteSpace=wrap;html=1;" parent="1" vertex="1">
          <mxGeometry x="210" y="-50" width="100" height="70" as="geometry" />
        </mxCell>
        <mxCell id="ww4cnImlD47e7eYLK4UX-130" value="" style="endArrow=classic;html=1;rounded=0;exitX=1;exitY=0.3333333333333333;exitDx=0;exitDy=0;exitPerimeter=0;entryX=0;entryY=0.5;entryDx=0;entryDy=0;" parent="1" source="ww4cnImlD47e7eYLK4UX-37" target="ww4cnImlD47e7eYLK4UX-128" edge="1">
          <mxGeometry width="50" height="50" relative="1" as="geometry">
            <mxPoint x="430" y="240" as="sourcePoint" />
            <mxPoint x="480" y="190" as="targetPoint" />
          </mxGeometry>
        </mxCell>
        <mxCell id="ww4cnImlD47e7eYLK4UX-131" value="&amp;lt;extend&amp;gt;" style="html=1;verticalAlign=bottom;endArrow=open;dashed=1;endSize=8;curved=0;rounded=0;entryX=0.271;entryY=0.063;entryDx=0;entryDy=0;exitX=0.988;exitY=0.768;exitDx=0;exitDy=0;exitPerimeter=0;entryPerimeter=0;" parent="1" source="ww4cnImlD47e7eYLK4UX-128" target="ww4cnImlD47e7eYLK4UX-70" edge="1">
          <mxGeometry x="0.1767" y="-4" relative="1" as="geometry">
            <mxPoint x="540" y="420" as="sourcePoint" />
            <mxPoint x="540" y="490" as="targetPoint" />
            <mxPoint x="-1" as="offset" />
          </mxGeometry>
        </mxCell>
        <mxCell id="ww4cnImlD47e7eYLK4UX-132" value="" style="endArrow=classic;html=1;rounded=0;entryX=0;entryY=0.5;entryDx=0;entryDy=0;exitX=0.5;exitY=0.5;exitDx=0;exitDy=0;exitPerimeter=0;" parent="1" source="ww4cnImlD47e7eYLK4UX-37" target="ww4cnImlD47e7eYLK4UX-50" edge="1">
          <mxGeometry width="50" height="50" relative="1" as="geometry">
            <mxPoint x="30" y="250" as="sourcePoint" />
            <mxPoint x="330" y="140" as="targetPoint" />
          </mxGeometry>
        </mxCell>
        <mxCell id="ww4cnImlD47e7eYLK4UX-133" value="administrar usuario" style="ellipse;whiteSpace=wrap;html=1;" parent="1" vertex="1">
          <mxGeometry x="380" y="30" width="90" height="50" as="geometry" />
        </mxCell>
        <mxCell id="ww4cnImlD47e7eYLK4UX-134" value="&amp;lt;include&amp;gt;" style="html=1;verticalAlign=bottom;endArrow=open;dashed=1;endSize=8;curved=0;rounded=0;exitX=0;exitY=0.5;exitDx=0;exitDy=0;entryX=1;entryY=0.5;entryDx=0;entryDy=0;" parent="1" source="ww4cnImlD47e7eYLK4UX-133" target="ww4cnImlD47e7eYLK4UX-50" edge="1">
          <mxGeometry x="-0.0001" relative="1" as="geometry">
            <mxPoint x="450" y="120" as="sourcePoint" />
            <mxPoint x="377" y="119" as="targetPoint" />
            <mxPoint as="offset" />
          </mxGeometry>
        </mxCell>
        <mxCell id="ww4cnImlD47e7eYLK4UX-135" value="" style="endArrow=classic;html=1;rounded=0;entryX=0;entryY=0.5;entryDx=0;entryDy=0;exitX=0.5;exitY=0.5;exitDx=0;exitDy=0;exitPerimeter=0;" parent="1" source="ww4cnImlD47e7eYLK4UX-37" target="ww4cnImlD47e7eYLK4UX-51" edge="1">
          <mxGeometry width="50" height="50" relative="1" as="geometry">
            <mxPoint x="40" y="250" as="sourcePoint" />
            <mxPoint x="380" y="240" as="targetPoint" />
          </mxGeometry>
        </mxCell>
        <mxCell id="ww4cnImlD47e7eYLK4UX-136" value="A침adir especialidad" style="ellipse;whiteSpace=wrap;html=1;" parent="1" vertex="1">
          <mxGeometry x="430" y="90" width="80" height="45" as="geometry" />
        </mxCell>
        <mxCell id="ww4cnImlD47e7eYLK4UX-137" value="eliminar especialidad" style="ellipse;whiteSpace=wrap;html=1;" parent="1" vertex="1">
          <mxGeometry x="430" y="140" width="80" height="50" as="geometry" />
        </mxCell>
        <mxCell id="ww4cnImlD47e7eYLK4UX-139" value="Modificar especialidad" style="ellipse;whiteSpace=wrap;html=1;" parent="1" vertex="1">
          <mxGeometry x="430" y="200" width="80" height="50" as="geometry" />
        </mxCell>
        <mxCell id="ww4cnImlD47e7eYLK4UX-140" value="&amp;lt;include&amp;gt;" style="html=1;verticalAlign=bottom;endArrow=open;dashed=1;endSize=8;curved=0;rounded=0;exitX=0;exitY=0.5;exitDx=0;exitDy=0;entryX=1;entryY=0.5;entryDx=0;entryDy=0;" parent="1" source="ww4cnImlD47e7eYLK4UX-136" target="ww4cnImlD47e7eYLK4UX-51" edge="1">
          <mxGeometry x="-0.0001" relative="1" as="geometry">
            <mxPoint x="390" y="65" as="sourcePoint" />
            <mxPoint x="310" y="65" as="targetPoint" />
            <mxPoint as="offset" />
          </mxGeometry>
        </mxCell>
        <mxCell id="ww4cnImlD47e7eYLK4UX-141" value="&amp;lt;include&amp;gt;" style="html=1;verticalAlign=bottom;endArrow=open;dashed=1;endSize=8;curved=0;rounded=0;exitX=0;exitY=0.5;exitDx=0;exitDy=0;entryX=0.967;entryY=0.688;entryDx=0;entryDy=0;entryPerimeter=0;" parent="1" source="ww4cnImlD47e7eYLK4UX-137" target="ww4cnImlD47e7eYLK4UX-51" edge="1">
          <mxGeometry x="-0.0001" relative="1" as="geometry">
            <mxPoint x="440" y="123" as="sourcePoint" />
            <mxPoint x="315" y="130" as="targetPoint" />
            <mxPoint as="offset" />
          </mxGeometry>
        </mxCell>
        <mxCell id="ww4cnImlD47e7eYLK4UX-142" value="&amp;lt;include&amp;gt;" style="html=1;verticalAlign=bottom;endArrow=open;dashed=1;endSize=8;curved=0;rounded=0;exitX=0;exitY=0.5;exitDx=0;exitDy=0;entryX=1;entryY=1;entryDx=0;entryDy=0;" parent="1" source="ww4cnImlD47e7eYLK4UX-139" target="ww4cnImlD47e7eYLK4UX-51" edge="1">
          <mxGeometry x="-0.0001" relative="1" as="geometry">
            <mxPoint x="440" y="175" as="sourcePoint" />
            <mxPoint x="325" y="140" as="targetPoint" />
            <mxPoint as="offset" />
          </mxGeometry>
        </mxCell>
        <mxCell id="ww4cnImlD47e7eYLK4UX-144" value="" style="endArrow=classic;html=1;rounded=0;exitX=1;exitY=0.3333333333333333;exitDx=0;exitDy=0;exitPerimeter=0;entryX=0;entryY=0.5;entryDx=0;entryDy=0;" parent="1" source="ww4cnImlD47e7eYLK4UX-37" target="ww4cnImlD47e7eYLK4UX-54" edge="1">
          <mxGeometry width="50" height="50" relative="1" as="geometry">
            <mxPoint x="330" y="390" as="sourcePoint" />
            <mxPoint x="380" y="340" as="targetPoint" />
          </mxGeometry>
        </mxCell>
        <mxCell id="ww4cnImlD47e7eYLK4UX-145" value="Enviar notificaciobnes" style="ellipse;whiteSpace=wrap;html=1;" parent="1" vertex="1">
          <mxGeometry x="775" y="890" width="80" height="50" as="geometry" />
        </mxCell>
        <mxCell id="ww4cnImlD47e7eYLK4UX-147" value="" style="endArrow=classic;html=1;rounded=0;exitX=0;exitY=1;exitDx=0;exitDy=0;exitPerimeter=0;entryX=1;entryY=0.5;entryDx=0;entryDy=0;" parent="1" source="ww4cnImlD47e7eYLK4UX-39" target="ww4cnImlD47e7eYLK4UX-145" edge="1">
          <mxGeometry width="50" height="50" relative="1" as="geometry">
            <mxPoint x="360" y="830" as="sourcePoint" />
            <mxPoint x="410" y="780" as="targetPoint" />
          </mxGeometry>
        </mxCell>
        <mxCell id="ww4cnImlD47e7eYLK4UX-148" value="Cancelar citas" style="ellipse;whiteSpace=wrap;html=1;" parent="1" vertex="1">
          <mxGeometry x="30" y="1250" width="100" height="60" as="geometry" />
        </mxCell>
        <mxCell id="ww4cnImlD47e7eYLK4UX-149" value="modificar citas" style="ellipse;whiteSpace=wrap;html=1;" parent="1" vertex="1">
          <mxGeometry x="200" y="1255" width="90" height="50" as="geometry" />
        </mxCell>
        <mxCell id="ww4cnImlD47e7eYLK4UX-150" value="" style="endArrow=classic;html=1;rounded=0;exitX=1;exitY=1;exitDx=0;exitDy=0;exitPerimeter=0;entryX=0;entryY=0.5;entryDx=0;entryDy=0;" parent="1" source="ww4cnImlD47e7eYLK4UX-45" target="ww4cnImlD47e7eYLK4UX-148" edge="1">
          <mxGeometry width="50" height="50" relative="1" as="geometry">
            <mxPoint x="190" y="1210" as="sourcePoint" />
            <mxPoint x="240" y="1160" as="targetPoint" />
          </mxGeometry>
        </mxCell>
        <mxCell id="ww4cnImlD47e7eYLK4UX-152" value="&amp;lt;include&amp;gt;" style="html=1;verticalAlign=bottom;endArrow=open;dashed=1;endSize=8;curved=0;rounded=0;entryX=1;entryY=0.5;entryDx=0;entryDy=0;exitX=0;exitY=0.5;exitDx=0;exitDy=0;" parent="1" source="ww4cnImlD47e7eYLK4UX-149" target="ww4cnImlD47e7eYLK4UX-148" edge="1">
          <mxGeometry x="-0.0001" relative="1" as="geometry">
            <mxPoint x="203" y="1339" as="sourcePoint" />
            <mxPoint x="150" y="1290" as="targetPoint" />
            <mxPoint as="offset" />
          </mxGeometry>
        </mxCell>
        <mxCell id="ww4cnImlD47e7eYLK4UX-153" value="Gestionar horarios" style="ellipse;whiteSpace=wrap;html=1;" parent="1" vertex="1">
          <mxGeometry x="222.5" y="1065" width="80" height="50" as="geometry" />
        </mxCell>
        <mxCell id="ww4cnImlD47e7eYLK4UX-154" value="&amp;lt;include&amp;gt;" style="html=1;verticalAlign=bottom;endArrow=open;dashed=1;endSize=8;curved=0;rounded=0;entryX=1;entryY=0.5;entryDx=0;entryDy=0;exitX=0;exitY=0.5;exitDx=0;exitDy=0;" parent="1" source="ww4cnImlD47e7eYLK4UX-153" target="ww4cnImlD47e7eYLK4UX-63" edge="1">
          <mxGeometry x="-0.0001" relative="1" as="geometry">
            <mxPoint x="210" y="1290" as="sourcePoint" />
            <mxPoint x="140" y="1290" as="targetPoint" />
            <mxPoint as="offset" />
          </mxGeometry>
        </mxCell>
      </root>
    </mxGraphModel>
  </diagram>
</mxfile>
